<?xml version="1.0" encoding="utf-8"?>
<!-- Generator: Adobe Illustrator 16.0.4, SVG Export Plug-In . SVG Version: 6.00 Build 0)  -->
<!DOCTYPE svg PUBLIC "-//W3C//DTD SVG 1.1//EN" "http://www.w3.org/Graphics/SVG/1.1/DTD/svg11.dtd">
<svg version="1.1" id="Layer_1" xmlns="http://www.w3.org/2000/svg" xmlns:xlink="http://www.w3.org/1999/xlink" x="0px" y="0px"
	 width="612px" height="792px" viewBox="0 0 612 792" enable-background="new 0 0 612 792" xml:space="preserve">
<polygon fill="#FFFFFF" points="155.491,20.303 309.868,157.557 309.868,366.726 6.096,366.726 6.096,157.557 "/>
<g opacity="0.5">
	<g>
		<g>
			<path stroke="#000000" stroke-width="4" stroke-miterlimit="10" d="M158.001,17.835l144.997,142.601v199.418H12.964V160.437
				L158.001,17.835 M158.001,8.2l-4.817,4.736L8.149,155.538l-2.053,2.019v2.879v199.418v6.871h6.87h290.032h6.87v-6.871V160.437
				v-2.879l-2.054-2.019L162.815,12.938L158.001,8.2L158.001,8.2z"/>
		</g>
	</g>
	<g>
		<polyline fill="none" stroke="#000000" stroke-width="8" stroke-miterlimit="10" points="12.192,360.435 234.159,93.382 
			81.488,93.382 303.583,360.435 		"/>
		<line fill="none" stroke="#000000" stroke-width="8" stroke-miterlimit="10" x1="157.964" y1="362.663" x2="157.837" y2="16.4"/>
		<polyline fill="none" stroke="#000000" stroke-width="8" stroke-miterlimit="10" points="304.075,161.444 12.192,360.435 
			157.837,16.4 		"/>
		<polygon fill="none" stroke="#000000" stroke-width="8" stroke-miterlimit="10" points="157.964,362.663 11.511,161.444 
			304.075,161.444 		"/>
		<polyline fill="none" stroke="#000000" stroke-width="8" stroke-miterlimit="10" points="157.837,16.4 303.583,360.435 
			11.511,161.444 		"/>
		<polygon fill="none" stroke="#000000" stroke-width="8" stroke-miterlimit="10" points="157.837,16.4 304.822,260.454 
			11.141,260.454 		"/>
	</g>
</g>
</svg>
